<?xml version="1.0" encoding="UTF-8"?>
<!-- Generator: Adobe Illustrator 19.0.0, SVG Export Plug-In . SVG Version: 6.00 Build 0)  -->
<svg version="1.1" id="Layer_1" xmlns="http://www.w3.org/2000/svg" xmlns:xlink="http://www.w3.org/1999/xlink" x="0px" y="0px" viewBox="0 0 148.1 163.1" style="enable-background:new 0 0 148.1 163.1;" xml:space="preserve">
<style type="text/css">
	.st0{fill:#FFFFFF;}
</style>
<g id="XMLID_3_">
	<path id="XMLID_40_" class="st0" d="M73.5,163.1c-4.1,0-8.2-1.1-11.9-3.2l-50.1-29.5C4.4,126.2-0.1,118.4,0,110l0.5-58.1   c0.1-8.4,4.6-16.1,11.9-20.2L63,3c7.3-4.1,16.3-4,23.5,0.2l50.1,29.5c7.2,4.2,11.6,12.1,11.6,20.4l-0.5,58.1   c-0.1,8.4-4.6,16.1-11.9,20.2l-50.6,28.6C81.5,162.1,77.5,163.1,73.5,163.1z M74.5,9c-2.5,0-4.9,0.6-7.1,1.9L16.8,39.5   C12.3,42,9.5,46.8,9.5,52L9,110.1c0,5.1,2.7,10,7.1,12.6l50.1,29.5c4.4,2.6,10,2.7,14.5,0.1l50.6-28.6c4.5-2.5,7.3-7.3,7.3-12.5   l0.5-58.1c0-5.1-2.7-10-7.1-12.6L81.9,11C79.6,9.7,77.1,9,74.5,9z"/>
</g>
<g id="XMLID_4_">
	<path id="XMLID_6_" class="st0" d="M70.8,148.8c-2.2-0.3-4.3-1.1-6.2-2.2l1.5-2.6c1.6,0.9,3.3,1.6,5.2,1.8L70.8,148.8z M77.4,148.6   l-0.6-2.9c1.4-0.3,2.8-0.8,4.1-1.6l1.1-0.6l1.5,2.6l-1.1,0.6C80.8,147.6,79.2,148.2,77.4,148.6z M59.4,143.5l-5.2-3.1l1.5-2.6   l5.2,3.1L59.4,143.5z M88.7,143.1l-1.5-2.6l5.3-3l1.5,2.6L88.7,143.1z M49,137.4l-5.2-3.1l1.5-2.6l5.2,3.1L49,137.4z M99.2,137.2   l-1.5-2.6l5.3-3l1.5,2.6L99.2,137.2z M38.5,131.2l-5.2-3.1l1.5-2.6l5.2,3.1L38.5,131.2z M109.8,131.2l-1.5-2.6l5.3-3l1.5,2.6   L109.8,131.2z M120.4,125.2l-1.5-2.6l5.3-3l0.8,1.3l0.7,1.3L120.4,125.2z M28,125.1l-5.2-3.1l1.5-2.6l5.2,3.1L28,125.1z M17.7,118   c-1.5-1.6-2.7-3.5-3.5-5.6l2.8-1.1c0.7,1.7,1.6,3.3,2.9,4.7L17.7,118z M130.7,117.9l-2.3-1.9c1.2-1.4,2-3.1,2.6-4.8l2.9,0.9   C133.2,114.2,132.1,116.2,130.7,117.9z M13,106L13,106l0.1-6.1l3,0l-0.1,6L13,106z M134.6,105.7l-3,0l0.1-6.1l3,0L134.6,105.7z    M16.1,93.9l-3,0l0.1-6.1l3,0L16.1,93.9z M134.7,93.5l-3,0l0.1-6.1l3,0L134.7,93.5z M16.2,81.7l-3,0l0.1-6.1l3,0L16.2,81.7z    M134.8,81.4l-3,0l0.1-6.1l3,0L134.8,81.4z M16.3,69.6l-3,0l0.1-6.1l3,0L16.3,69.6z M134.9,69.3l-3,0l0.1-6.1l3,0L134.9,69.3z    M16.4,57.5l-3,0l0-1.2c0-1.8,0.3-3.5,0.8-5.2l2.9,0.9c-0.4,1.4-0.7,2.8-0.7,4.3L16.4,57.5z M132,57.1c0-1.9-0.3-3.7-1-5.4l2.8-1.1   c0.8,2,1.2,4.2,1.2,6.4L132,57.1z M128.2,47.1c-1-1.1-2.1-2-3.4-2.7l-1.1-0.6l1.5-2.6l1.1,0.6c1.5,0.9,2.9,2,4.1,3.3L128.2,47.1z    M19.7,47.1l-2.3-1.9c1.4-1.7,3.1-3.2,5-4.3l1.5,2.6C22.3,44.5,20.9,45.6,19.7,47.1z M118.5,40.6l-5.2-3.1l1.5-2.6l5.2,3.1   L118.5,40.6z M29.2,40.6l-1.5-2.6l5.3-3l1.5,2.6L29.2,40.6z M39.7,34.6L38.2,32l5.3-3l1.5,2.6L39.7,34.6z M108,34.5l-5.2-3.1   l1.5-2.6l5.2,3.1L108,34.5z M50.3,28.6L48.8,26l5.3-3l1.5,2.6L50.3,28.6z M97.6,28.3l-5.2-3.1l1.5-2.6l5.2,3.1L97.6,28.3z    M60.8,22.6L59.3,20l5.3-3l1.5,2.6L60.8,22.6z M87.1,22.2l-5.2-3.1l1.5-2.6l5.2,3.1L87.1,22.2z M71.3,17.5l-0.7-2.9   c2.2-0.5,4.4-0.6,6.6-0.2l-0.5,3C74.9,17,73,17.1,71.3,17.5z"/>
</g>
<g id="XMLID_53_">
	<path id="XMLID_61_" class="st0" d="M90.8,112.1c-0.1,0.8-0.8,1.4-1.6,1.4H58.8c-0.8,0-1.5-0.6-1.6-1.4l-3.1-23.8   c0-0.4,0.1-0.9,0.4-1.2s0.7-0.5,1.2-0.5h36.8c0.4,0,0.9,0.2,1.2,0.5c0.3,0.3,0.4,0.8,0.4,1.2L90.8,112.1z M74.2,73.9L74.2,73.9   l3.6-3.7l2.3,1.9l4.7,2.2c0.7,0.3,1.4,0.8,1.7,1.5c0,0,2,4.8,2.8,8.4H75.8L74.2,73.9z M73.9,70.2c-4.2,0-8.4-4.5-8.5-12.2   c-0.1-5.3,2.4-8.5,8.5-8.5c6.1,0,8.5,3.2,8.5,8.5C82.3,65.7,77.5,70.2,73.9,70.2z M72.2,60.2c2.9-3.7-5.3-4.7-4.7-0.2   c0.5,4.2,2.9,8.4,6.4,8.4c3.4,0,6.4-5,6.5-8.4C80.4,54.4,76.6,60.6,72.2,60.2z M70.2,70.3l3.6,3.7h0l-1.5,10.4H58.7   c0.8-3.6,2.8-8.4,2.8-8.4c0.3-0.8,1-1.2,1.7-1.5l4.7-2.2L70.2,70.3z"/>
</g>
</svg>