<?xml version="1.0" encoding="UTF-8"?>
<!-- Generator: Adobe Illustrator 19.0.0, SVG Export Plug-In . SVG Version: 6.00 Build 0)  -->
<svg version="1.1" id="Layer_1" xmlns="http://www.w3.org/2000/svg" xmlns:xlink="http://www.w3.org/1999/xlink" x="0px" y="0px" viewBox="0 0 148.1 163.1" style="enable-background:new 0 0 148.1 163.1;" xml:space="preserve">
<style type="text/css">
	.st0{fill:#FFFFFF;}
</style>
<g id="XMLID_3_">
	<path id="XMLID_40_" class="st0" d="M73.5,163.1c-4.1,0-8.2-1.1-11.9-3.2l-50.1-29.5C4.4,126.2-0.1,118.4,0,110l0.5-58.1   c0.1-8.4,4.6-16.1,11.9-20.2L63,3c7.3-4.1,16.3-4,23.5,0.2l50.1,29.5c7.2,4.2,11.6,12.1,11.6,20.4l-0.5,58.1   c-0.1,8.4-4.6,16.1-11.9,20.2l-50.6,28.6C81.5,162.1,77.5,163.1,73.5,163.1z M74.5,9c-2.5,0-4.9,0.6-7.1,1.9L16.8,39.5   C12.3,42,9.5,46.8,9.5,52L9,110.1c0,5.1,2.7,10,7.1,12.6l50.1,29.5c4.4,2.6,10,2.7,14.5,0.1l50.6-28.6c4.5-2.5,7.3-7.3,7.3-12.5   l0.5-58.1c0-5.1-2.7-10-7.1-12.6L81.9,11C79.6,9.7,77.1,9,74.5,9z"/>
</g>
<g id="XMLID_4_">
	<path id="XMLID_6_" class="st0" d="M70.8,148.8c-2.2-0.3-4.3-1.1-6.2-2.2l1.5-2.6c1.6,0.9,3.3,1.6,5.2,1.8L70.8,148.8z M77.4,148.6   l-0.6-2.9c1.4-0.3,2.8-0.8,4.1-1.6l1.1-0.6l1.5,2.6l-1.1,0.6C80.8,147.6,79.2,148.2,77.4,148.6z M59.4,143.5l-5.2-3.1l1.5-2.6   l5.2,3.1L59.4,143.5z M88.7,143.1l-1.5-2.6l5.3-3l1.5,2.6L88.7,143.1z M49,137.4l-5.2-3.1l1.5-2.6l5.2,3.1L49,137.4z M99.2,137.2   l-1.5-2.6l5.3-3l1.5,2.6L99.2,137.2z M38.5,131.2l-5.2-3.1l1.5-2.6l5.2,3.1L38.5,131.2z M109.8,131.2l-1.5-2.6l5.3-3l1.5,2.6   L109.8,131.2z M120.4,125.2l-1.5-2.6l5.3-3l0.8,1.3l0.7,1.3L120.4,125.2z M28,125.1l-5.2-3.1l1.5-2.6l5.2,3.1L28,125.1z M17.7,118   c-1.5-1.6-2.7-3.5-3.5-5.6l2.8-1.1c0.7,1.7,1.6,3.3,2.9,4.7L17.7,118z M130.7,117.9l-2.3-1.9c1.2-1.4,2-3.1,2.6-4.8l2.9,0.9   C133.2,114.2,132.1,116.2,130.7,117.9z M13,106L13,106l0.1-6.1l3,0l-0.1,6L13,106z M134.6,105.7l-3,0l0.1-6.1l3,0L134.6,105.7z    M16.1,93.9l-3,0l0.1-6.1l3,0L16.1,93.9z M134.7,93.5l-3,0l0.1-6.1l3,0L134.7,93.5z M16.2,81.7l-3,0l0.1-6.1l3,0L16.2,81.7z    M134.8,81.4l-3,0l0.1-6.1l3,0L134.8,81.4z M16.3,69.6l-3,0l0.1-6.1l3,0L16.3,69.6z M134.9,69.3l-3,0l0.1-6.1l3,0L134.9,69.3z    M16.4,57.5l-3,0l0-1.2c0-1.8,0.3-3.5,0.8-5.2l2.9,0.9c-0.4,1.4-0.7,2.8-0.7,4.3L16.4,57.5z M132,57.1c0-1.9-0.3-3.7-1-5.4l2.8-1.1   c0.8,2,1.2,4.2,1.2,6.4L132,57.1z M128.2,47.1c-1-1.1-2.1-2-3.4-2.7l-1.1-0.6l1.5-2.6l1.1,0.6c1.5,0.9,2.9,2,4.1,3.3L128.2,47.1z    M19.7,47.1l-2.3-1.9c1.4-1.7,3.1-3.2,5-4.3l1.5,2.6C22.3,44.5,20.9,45.6,19.7,47.1z M118.5,40.6l-5.2-3.1l1.5-2.6l5.2,3.1   L118.5,40.6z M29.2,40.6l-1.5-2.6l5.3-3l1.5,2.6L29.2,40.6z M39.7,34.6L38.2,32l5.3-3l1.5,2.6L39.7,34.6z M108,34.5l-5.2-3.1   l1.5-2.6l5.2,3.1L108,34.5z M50.3,28.6L48.8,26l5.3-3l1.5,2.6L50.3,28.6z M97.6,28.3l-5.2-3.1l1.5-2.6l5.2,3.1L97.6,28.3z    M60.8,22.6L59.3,20l5.3-3l1.5,2.6L60.8,22.6z M87.1,22.2l-5.2-3.1l1.5-2.6l5.2,3.1L87.1,22.2z M71.3,17.5l-0.7-2.9   c2.2-0.5,4.4-0.6,6.6-0.2l-0.5,3C74.9,17,73,17.1,71.3,17.5z"/>
</g>
<path class="st0" d="M88.6,111.8v-10.4l5.4-1.1l2.3,2.6l2.3-2.6l5,1.1l0.3,10.4H88.6z M96.3,99.4c-3.4,0-6.1-2.7-6.1-5.9  c0-3.3,2.7-5.9,6.1-5.9c3.4,0,6.1,2.7,6.1,5.9C102.4,96.8,99.7,99.4,96.3,99.4z M96.8,84.7c-2.4,0-4.3-1.8-4.3-4.1  c0-2.3,1.9-4.1,4.3-4.1c2.4,0,4.3,1.8,4.3,4.1C101.1,82.9,99.2,84.7,96.8,84.7z M96.3,72.7c-2.1,0-3.7-1.6-3.7-3.6  c0-2,1.7-3.6,3.7-3.6c2.1,0,3.7,1.6,3.7,3.6C100,71,98.3,72.7,96.3,72.7z M97,60c-1.5,0-2.7-1.2-2.7-2.6c0-1.4,1.2-2.6,2.7-2.6  c1.5,0,2.7,1.2,2.7,2.6C99.7,58.8,98.5,60,97,60z M90.1,98.6H79.1c1.1-1.4,1.8-3.2,1.8-5.1c0-1.2-0.3-2.3-0.7-3.3h1h1.8l1.7,1.9  l1.6-1.9h1.7H89l0.5,0c-0.4,1-0.7,2.1-0.7,3.3c0,1.8,0.6,3.4,1.3,4.8L90.1,98.6z M85.4,78.6c-2.2,0-4-1.7-4-3.9c0-2.1,1.8-3.9,4-3.9  c2.2,0,4,1.7,4,3.9C89.4,76.8,87.6,78.6,85.4,78.6z M84.9,65.8c-1.8,0-3.3-1.5-3.3-3.2s1.5-3.2,3.3-3.2c1.9,0,3.4,1.5,3.4,3.2  S86.8,65.8,84.9,65.8z M85.4,55.4c-1.2,0-2.2-0.9-2.2-2.1c0-1.2,1-2.1,2.2-2.1c1.2,0,2.2,0.9,2.2,2.1C87.6,54.5,86.6,55.4,85.4,55.4  z M89,85.2c0,2.4-2,4.3-4.5,4.3c-2.5,0-4.5-1.9-4.5-4.3c0-2.4,2-4.3,4.5-4.3C87,80.9,89,82.8,89,85.2z M73.7,99.4  c-3.4,0-6.1-2.7-6.1-5.9c0-3.3,2.7-5.9,6.1-5.9c3.4,0,6.1,2.7,6.1,5.9C79.9,96.8,77.1,99.4,73.7,99.4z M73.7,84.7  c-2.4,0-4.3-1.8-4.3-4.1c0-2.3,1.9-4.1,4.3-4.1c2.4,0,4.3,1.8,4.3,4.1C78,82.9,76.1,84.7,73.7,84.7z M73.7,72.7  C71.7,72.7,70,71,70,69c0-2,1.7-3.6,3.7-3.6c2.1,0,3.7,1.6,3.7,3.6C77.5,71,75.8,72.7,73.7,72.7z M73.9,60c-1.5,0-2.7-1.2-2.7-2.6  c0-1.4,1.2-2.6,2.7-2.6c1.5,0,2.7,1.2,2.7,2.6C76.6,58.8,75.4,60,73.9,60z M68.2,98.5l0,0.3H57.1c1.1-1.4,1.8-3.2,1.8-5.1  c0-1.2-0.3-2.3-0.7-3.3h1H61l1.7,1.9l1.6-1.9H66h1.1l0.4,0c-0.4,1-0.7,2.1-0.7,3.3C66.8,95.4,67.4,97,68.2,98.5z M62.6,89.7  c-2.5,0-4.5-1.9-4.5-4.3c0-2.4,2-4.3,4.5-4.3c2.5,0,4.5,1.9,4.5,4.3C67.1,87.8,65.1,89.7,62.6,89.7z M62.6,78.6c-2.2,0-4-1.7-4-3.9  c0-2.1,1.8-3.9,4-3.9c2.2,0,4,1.7,4,3.9C66.6,76.8,64.9,78.6,62.6,78.6z M63,65.8c-1.9,0-3.4-1.5-3.4-3.2s1.5-3.2,3.4-3.2  c1.8,0,3.3,1.5,3.3,3.2S64.8,65.8,63,65.8z M63,55.4c-1.2,0-2.2-0.9-2.2-2.1c0-1.2,1-2.1,2.2-2.1c1.2,0,2.2,0.9,2.2,2.1  C65.1,54.5,64.2,55.4,63,55.4z M51.8,99.6c-3.4,0-6.1-2.7-6.1-5.9s2.7-5.9,6.1-5.9s6.1,2.7,6.1,5.9S55.2,99.6,51.8,99.6z M51.5,84.3  c-2.4,0-4.3-1.8-4.3-4.1c0-2.3,1.9-4.1,4.3-4.1c2.4,0,4.3,1.8,4.3,4.1C55.7,82.5,53.8,84.3,51.5,84.3z M51.4,72  c-2.1,0-3.7-1.6-3.7-3.6c0-2,1.7-3.6,3.7-3.6c2.1,0,3.7,1.6,3.7,3.6C55.2,70.4,53.5,72,51.4,72z M52,60c-1.5,0-2.7-1.2-2.7-2.6  c0-1.4,1.2-2.6,2.7-2.6c1.5,0,2.7,1.2,2.7,2.6C54.7,58.8,53.4,60,52,60z M51.9,103.1l2.3-2.6l5,0.9l0.3,10.5H44.1v-10.5l5.4-0.9  L51.9,103.1z M73.9,103l2.3-2.6l5,1.1l0.3,10.4H66.1v-10.4l5.4-1.1L73.9,103z"/>
</svg>