<svg xmlns="http://www.w3.org/2000/svg" viewBox="120 10 90.87 58.33">
    <defs>
        <style>.cls-1{fill:#fff;}</style>
    </defs>
    <title>logo--white--without_text</title>
    <g id="Layer_2" data-name="Layer 2">
        <g id="brand">
            <g id="logo--white--without_text">
                <path class="cls-1"
                      d="M154,2,147.74.36a10.58,10.58,0,0,0-12.94,7.51l-1.58,5.93A32.4,32.4,0,0,1,154,2Z"/>
                <path class="cls-1"
                      d="M126.44,39.33l-1.54,5.8a10.58,10.58,0,0,0,7.51,12.94l6,1.6A32.41,32.41,0,0,1,126.44,39.33Z"/>
                <path class="cls-1"
                      d="M185,10.25l-6.74-1.79a32.4,32.4,0,0,1,12.4,21.7l1.85-7A10.58,10.58,0,0,0,185,10.25Z"/>
                <path class="cls-1"
                      d="M163.23,66.26,169.68,68a10.58,10.58,0,0,0,12.94-7.51l1.82-6.84A32.42,32.42,0,0,1,163.23,66.26Z"/>
                <path class="cls-1"
                      d="M158.71,4.54a29.63,29.63,0,1,0,29.63,29.63A29.63,29.63,0,0,0,158.71,4.54ZM141.93,19.32a8.46,8.46,0,1,1,6.71,9.91A8.46,8.46,0,0,1,141.93,19.32Zm12.31,25.6A8.46,8.46,0,1,1,147.53,35,8.46,8.46,0,0,1,154.24,44.92Zm3.59-6.85a3.76,3.76,0,1,1,4.41-3A3.76,3.76,0,0,1,157.83,38.07ZM175.48,49a8.46,8.46,0,1,1-6.71-9.91A8.46,8.46,0,0,1,175.48,49Zm-5.6-15.68a8.46,8.46,0,1,1,9.91-6.71A8.46,8.46,0,0,1,169.88,33.33Z"/>
            </g>
        </g>
    </g>
</svg>